<svg width="48" height="48" viewBox="0 0 48 48" fill="none" xmlns="http://www.w3.org/2000/svg">
  <path d="M24 4C24 4 16 12 16 20C16 24 18 28 22 30C20 28 18 24 20 20C20 20 22 24 26 24C26 24 28 20 28 16C28 16 32 20 32 26C32 34 28 40 24 44C24 44 40 40 40 26C40 16 32 8 24 4Z" fill="url(#fire-gradient)"/>
  <path d="M24 44C20 40 16 34 16 28C16 24 18 22 20 22C20 22 18 26 20 28C22 30 24 32 24 36C24 36 26 32 26 28C26 24 24 20 28 18C28 18 32 22 32 28C32 34 28 40 24 44Z" fill="url(#fire-inner)"/>
  <defs>
    <linearGradient id="fire-gradient" x1="24" y1="4" x2="24" y2="44" gradientUnits="userSpaceOnUse">
      <stop stop-color="#FF9500"/>
      <stop offset="0.5" stop-color="#FF5E3A"/>
      <stop offset="1" stop-color="#FF2D55"/>
    </linearGradient>
    <linearGradient id="fire-inner" x1="24" y1="18" x2="24" y2="44" gradientUnits="userSpaceOnUse">
      <stop stop-color="#FFCC00"/>
      <stop offset="1" stop-color="#FF9500"/>
    </linearGradient>
  </defs>
</svg>
